
<?xml version="1.0" encoding="UTF-8" standalone="no"?>
<svg
   xmlns:dc="http://purl.org/dc/elements/1.1/"
   xmlns:cc="http://creativecommons.org/ns#"
   xmlns:rdf="http://www.w3.org/1999/02/22-rdf-syntax-ns#"
   xmlns:svg="http://www.w3.org/2000/svg"
   xmlns="http://www.w3.org/2000/svg"
   xmlns:sodipodi="http://sodipodi.sourceforge.net/DTD/sodipodi-0.dtd"
   xmlns:inkscape="http://www.inkscape.org/namespaces/inkscape"
   version="1.1"
   id="logo"
   viewBox="0 0 920 920"
   xml:space="preserve"
   inkscape:version="0.48.4 r9939"
   width="100%"
   height="100%"
   sodipodi:docname="logo.svg"><metadata
   id="metadata3021"><rdf:RDF><cc:Work
       rdf:about=""><dc:format>image/svg+xml</dc:format><dc:type
         rdf:resource="http://purl.org/dc/dcmitype/StillImage" /></cc:Work></rdf:RDF></metadata><defs
   id="defs3019" /><sodipodi:namedview
   pagecolor="#ffffff"
   bordercolor="#666666"
   borderopacity="1"
   objecttolerance="10"
   gridtolerance="10"
   guidetolerance="10"
   inkscape:pageopacity="0"
   inkscape:pageshadow="2"
   inkscape:window-width="1680"
   inkscape:window-height="975"
   id="namedview3017"
   showgrid="false"
   inkscape:zoom="1.4777219"
   inkscape:cx="411.57775"
   inkscape:cy="194.75777"
   inkscape:window-x="-9"
   inkscape:window-y="-9"
   inkscape:window-maximized="1"
   inkscape:current-layer="logo" />
<g
   id="g3005">
		<path
   id="winter"
   clip-rule="evenodd"
   d="M 458,335 C 442.778,269.804 383.35,248.356 313,236 267.88809,222.54151 198.77,225.11464 210,168 c 5.141,-25.318 24.529,-46.115 38,-63 5.726,-5.608 11.055,-11.612 17,-17 28.082,-25.689 66.333,-53.776 110,-72 13.71,-5.722 34.109,-13.71 49,-9 22.875,7.236 26.064,54.338 34,80 2.133,-13.507 5.883,-29.173 11,-45 4.687,-14.497 10.508,-33.555 26,-36 3.667,0 7.333,0 11,0 63.489,14.511 107.137,48.862 149,85 3.248,4.085 6.915,7.752 11,11 17.256,20.078 35.51,39.156 41,71 2.61292,38.79898 -36.36412,48.06826 -66,55 -26.077,6.058 -55.445,11.081 -78,17 -54.277,14.245 -88.985,39.175 -103,90 -0.667,0 -1.333,0 -2,0 z"
   inkscape:connector-curvature="0"
   style="fill:#e60038;fill-rule:evenodd"
   sodipodi:nodetypes="ccccccccsccccccccc" />
</g>
<g
   id="g3008">
		<path
   id="autumn"
   clip-rule="evenodd"
   d="m 460,586 c 14.492,57.313 66.838,84.373 131,96 21.436,3.885 43.678,7.058 66,13 32.89388,12.83912 52.67322,19.20543 53,51 -4.888,30.112 -21.432,48.568 -37,68 -2.092,1.241 -3.759,2.908 -5,5 -4.418,3.582 -8.418,7.582 -12,12 -2.092,1.241 -3.759,2.908 -5,5 -40.113,32.886 -80.17,65.83 -140,79 -39.27987,2.25332 -42.95475,-55.2954 -50,-81 -2.32,14.983 -6.341,30.025 -11,45 -6.959,22.368 -12.95,40.482 -44,35 -56.027,-9.893 -109.007,-56.639 -145,-87 -3.248,-4.085 -6.915,-7.752 -11,-11 -15.879,-19.788 -33.835,-37.498 -38,-69 -1.78101,-28.96255 17.93256,-40.25752 41,-48 50.99,-16.785 107.252,-16.609 151,-41 28.662,-15.979 43.136,-37.264 55,-72 0.333,0 0.667,0 1,0 z"
   inkscape:connector-curvature="0"
   style="fill:#fabe00;fill-rule:evenodd"
   sodipodi:nodetypes="ccccccccccscccccccc" />
</g>
<g
   id="g3011">
		<path
   id="summer"
   clip-rule="evenodd"
   d="m 106,252 c 19.782,-15.884 37.549,-33.784 69,-38 33.30301,-2.00695 43.92795,26.11139 51,53 5.695,21.968 10.181,44.56 14,65 12.149,65.03 36.162,113.484 96,129 0,0.333 0,0.667 0,1 -7.882,3.982 -16.656,5.313 -24,9 -99.28221,45.26018 -54.77056,245.06031 -136,241 -30.277,-4.723 -48.492,-21.508 -68,-37 -1.242,-2.092 -2.908,-3.759 -5,-5 -3.582,-4.418 -7.582,-8.418 -12,-12 -1.242,-2.092 -2.908,-3.759 -5,-5 C 53.125,612.876 20.126,572.874 7,513 c 0,-4.667 0,-9.333 0,-14 12.805,-26.861 52.317,-27.017 82,-37 -35.953,-7.98 -90.779,-7.028 -81,-56 5.53,-27.693 21.869,-54.304 37,-78 15.991,-25.042 32.946,-48.282 50,-65 4.085,-3.248 7.752,-6.915 11,-11 z"
   inkscape:connector-curvature="0"
   style="fill:#0062b1;fill-rule:evenodd"
   sodipodi:nodetypes="cccccccccccccccsccc" />
</g>
<g
   id="g3014">
		<path
   id="spring"
   clip-rule="evenodd"
   d="m 584,460 c 60.336,-16.6 82.982,-65.678 95,-132 3.479,-19.199 8.285,-43.092 14,-65 8.266,-31.688 17.547,-58.951 56,-53 28.16,4.358 49.995,28.081 69,42 3.582,4.418 7.582,8.418 12,12 25.415,29.124 55.36,68.185 73,111 5.814,14.114 14.054,35.649 9,51 -3.777,11.475 -22.218,17.57 -35,22 -15.305,5.304 -31.658,6.91 -45,12 26.74471,6.02562 73.19166,10.09905 81,36 0,3.667 0,7.333 0,11 -14.355,63.645 -48.572,107.427 -85,149 -4.418,3.582 -8.418,7.582 -12,12 -19.768,16.899 -38.29,35.044 -70,40 -34.41154,2.31428 -45.44009,-26.51401 -53,-54 -5.941,-21.965 -8.98,-44.325 -13,-65 -12.316,-63.354 -35.856,-111.759 -96,-128 0,-0.333 0,-0.667 0,-1 z"
   inkscape:connector-curvature="0"
   style="fill:#5bb531;fill-rule:evenodd"
   sodipodi:nodetypes="csssccccccccccccccc" />
</g>
</svg>